<svg width="1145" height="763" viewBox="0 0 1145 763" fill="none" xmlns="http://www.w3.org/2000/svg">
<g clip-path="url(#clip0_84_3)">
<rect width="1145" height="763" fill="#192140"/>
<path d="M413.402 263.445L407.992 292H400.199L398.246 281.316C398.129 280.704 398.018 280.079 397.914 279.441C397.81 278.803 397.712 278.159 397.621 277.508C397.543 276.844 397.465 276.18 397.387 275.516C397.309 274.852 397.243 274.188 397.191 273.523C397.152 274.057 397.1 274.65 397.035 275.301C396.97 275.952 396.892 276.629 396.801 277.332C396.71 278.022 396.612 278.706 396.508 279.383C396.417 280.06 396.312 280.691 396.195 281.277L394.203 292H386.488L381 263.445H387.641L389.672 275.887C389.75 276.368 389.835 276.935 389.926 277.586C390.03 278.237 390.128 278.934 390.219 279.676C390.31 280.405 390.395 281.147 390.473 281.902C390.564 282.645 390.648 283.354 390.727 284.031C390.805 283.315 390.896 282.579 391 281.824C391.104 281.056 391.215 280.314 391.332 279.598C391.449 278.868 391.56 278.191 391.664 277.566C391.768 276.941 391.866 276.408 391.957 275.965L394.477 263.445H399.965L402.23 275.965C402.348 276.486 402.458 277.078 402.562 277.742C402.68 278.393 402.79 279.083 402.895 279.812C403.012 280.542 403.116 281.271 403.207 282C403.298 282.716 403.376 283.393 403.441 284.031C403.493 283.302 403.572 282.482 403.676 281.57C403.793 280.659 403.923 279.715 404.066 278.738C404.21 277.762 404.359 276.824 404.516 275.926L406.605 263.445H413.402ZM423.266 269.52C425.023 269.52 426.527 269.91 427.777 270.691C429.027 271.473 429.978 272.612 430.629 274.109C431.293 275.607 431.625 277.436 431.625 279.598V282.996H421.059C421.059 284.48 421.365 285.561 421.977 286.238C422.602 286.902 423.552 287.234 424.828 287.234C425.844 287.234 426.788 287.104 427.66 286.844C428.533 286.583 429.477 286.141 430.492 285.516V290.809C429.542 291.368 428.52 291.772 427.426 292.02C426.332 292.267 425.147 292.391 423.871 292.391C421.736 292.391 419.991 291.961 418.637 291.102C417.296 290.229 416.306 288.947 415.668 287.254C415.03 285.561 414.711 283.491 414.711 281.043C414.711 278.569 415.03 276.479 415.668 274.773C416.319 273.055 417.276 271.753 418.539 270.867C419.815 269.969 421.391 269.52 423.266 269.52ZM423.422 274.52C422.745 274.52 422.178 274.812 421.723 275.398C421.28 275.984 421.059 277 421.059 278.445H425.629C425.629 277.508 425.538 276.753 425.355 276.18C425.173 275.594 424.913 275.171 424.574 274.91C424.249 274.65 423.865 274.52 423.422 274.52ZM441.195 292H434.711V261.609H441.195V292ZM453.422 292.391C451.443 292.391 449.796 291.993 448.48 291.199C447.165 290.392 446.182 289.148 445.531 287.469C444.88 285.789 444.555 283.647 444.555 281.043C444.555 278.895 444.861 276.948 445.473 275.203C446.098 273.458 447.074 272.072 448.402 271.043C449.73 270.001 451.443 269.48 453.539 269.48C454.763 269.48 455.87 269.624 456.859 269.91C457.862 270.184 458.799 270.6 459.672 271.16L457.953 276.316C457.289 275.874 456.632 275.548 455.98 275.34C455.329 275.118 454.665 275.008 453.988 275.008C453.402 275.008 452.895 275.242 452.465 275.711C452.035 276.18 451.697 276.863 451.449 277.762C451.215 278.647 451.098 279.741 451.098 281.043C451.098 282.332 451.215 283.413 451.449 284.285C451.684 285.145 452.022 285.796 452.465 286.238C452.921 286.668 453.48 286.883 454.145 286.883C454.991 286.883 455.831 286.72 456.664 286.395C457.497 286.056 458.311 285.568 459.105 284.93V290.438C458.311 291.102 457.439 291.596 456.488 291.922C455.551 292.234 454.529 292.391 453.422 292.391ZM479.926 280.887C479.926 282.306 479.77 283.699 479.457 285.066C479.158 286.421 478.656 287.651 477.953 288.758C477.25 289.865 476.319 290.75 475.16 291.414C474.014 292.065 472.589 292.391 470.883 292.391C469.32 292.391 467.973 292.072 466.84 291.434C465.707 290.783 464.776 289.917 464.047 288.836C463.318 287.742 462.777 286.512 462.426 285.145C462.074 283.764 461.898 282.345 461.898 280.887C461.898 278.764 462.204 276.844 462.816 275.125C463.428 273.393 464.398 272.02 465.727 271.004C467.068 269.988 468.812 269.48 470.961 269.48C472.758 269.48 474.327 269.93 475.668 270.828C477.009 271.714 478.051 273.003 478.793 274.695C479.548 276.388 479.926 278.452 479.926 280.887ZM468.441 280.965C468.441 282.28 468.526 283.387 468.695 284.285C468.878 285.184 469.151 285.861 469.516 286.316C469.88 286.772 470.349 287 470.922 287C471.534 287 472.016 286.779 472.367 286.336C472.719 285.88 472.973 285.197 473.129 284.285C473.285 283.374 473.363 282.241 473.363 280.887C473.363 279.533 473.285 278.413 473.129 277.527C472.973 276.642 472.719 275.978 472.367 275.535C472.016 275.092 471.534 274.871 470.922 274.871C470.062 274.871 469.431 275.366 469.027 276.355C468.637 277.345 468.441 278.882 468.441 280.965ZM504.945 269.48C506.924 269.48 508.409 270.151 509.398 271.492C510.388 272.82 510.883 274.858 510.883 277.605V292H504.398V279.715C504.398 278.243 504.255 277.13 503.969 276.375C503.682 275.62 503.24 275.242 502.641 275.242C501.729 275.242 501.111 275.743 500.785 276.746C500.473 277.736 500.316 279.298 500.316 281.434V292H493.832V279.715C493.832 278.725 493.767 277.905 493.637 277.254C493.52 276.59 493.337 276.089 493.09 275.75C492.842 275.411 492.517 275.242 492.113 275.242C491.514 275.242 491.039 275.477 490.688 275.945C490.349 276.414 490.108 277.15 489.965 278.152C489.822 279.155 489.75 280.464 489.75 282.078V292H483.266V269.871H488.344L489.066 272.605H489.438C489.724 271.915 490.121 271.342 490.629 270.887C491.137 270.418 491.742 270.066 492.445 269.832C493.161 269.598 493.943 269.48 494.789 269.48C496.091 269.48 497.126 269.754 497.895 270.301C498.663 270.848 499.216 271.544 499.555 272.391H499.984C500.492 271.466 501.15 270.75 501.957 270.242C502.777 269.734 503.773 269.48 504.945 269.48ZM522.68 269.52C524.438 269.52 525.941 269.91 527.191 270.691C528.441 271.473 529.392 272.612 530.043 274.109C530.707 275.607 531.039 277.436 531.039 279.598V282.996H520.473C520.473 284.48 520.779 285.561 521.391 286.238C522.016 286.902 522.966 287.234 524.242 287.234C525.258 287.234 526.202 287.104 527.074 286.844C527.947 286.583 528.891 286.141 529.906 285.516V290.809C528.956 291.368 527.934 291.772 526.84 292.02C525.746 292.267 524.561 292.391 523.285 292.391C521.15 292.391 519.405 291.961 518.051 291.102C516.71 290.229 515.72 288.947 515.082 287.254C514.444 285.561 514.125 283.491 514.125 281.043C514.125 278.569 514.444 276.479 515.082 274.773C515.733 273.055 516.69 271.753 517.953 270.867C519.229 269.969 520.805 269.52 522.68 269.52ZM522.836 274.52C522.159 274.52 521.592 274.812 521.137 275.398C520.694 275.984 520.473 277 520.473 278.445H525.043C525.043 277.508 524.952 276.753 524.77 276.18C524.587 275.594 524.327 275.171 523.988 274.91C523.663 274.65 523.279 274.52 522.836 274.52ZM549.77 286.805C550.173 286.805 550.609 286.74 551.078 286.609C551.56 286.466 552.068 286.277 552.602 286.043V291.16C551.885 291.564 551.13 291.87 550.336 292.078C549.555 292.286 548.708 292.391 547.797 292.391C546.352 292.391 545.18 292.117 544.281 291.57C543.383 291.01 542.725 290.164 542.309 289.031C541.892 287.885 541.684 286.447 541.684 284.715V275.203H539.438V271.766L542.25 270.086L543.773 265.438H548.168V269.871H552.328V275.203H548.168V284.637C548.168 285.353 548.298 285.893 548.559 286.258C548.819 286.622 549.223 286.805 549.77 286.805ZM572.66 280.887C572.66 282.306 572.504 283.699 572.191 285.066C571.892 286.421 571.391 287.651 570.688 288.758C569.984 289.865 569.053 290.75 567.895 291.414C566.749 292.065 565.323 292.391 563.617 292.391C562.055 292.391 560.707 292.072 559.574 291.434C558.441 290.783 557.51 289.917 556.781 288.836C556.052 287.742 555.512 286.512 555.16 285.145C554.809 283.764 554.633 282.345 554.633 280.887C554.633 278.764 554.939 276.844 555.551 275.125C556.163 273.393 557.133 272.02 558.461 271.004C559.802 269.988 561.547 269.48 563.695 269.48C565.492 269.48 567.061 269.93 568.402 270.828C569.743 271.714 570.785 273.003 571.527 274.695C572.283 276.388 572.66 278.452 572.66 280.887ZM561.176 280.965C561.176 282.28 561.26 283.387 561.43 284.285C561.612 285.184 561.885 285.861 562.25 286.316C562.615 286.772 563.083 287 563.656 287C564.268 287 564.75 286.779 565.102 286.336C565.453 285.88 565.707 285.197 565.863 284.285C566.02 283.374 566.098 282.241 566.098 280.887C566.098 279.533 566.02 278.413 565.863 277.527C565.707 276.642 565.453 275.978 565.102 275.535C564.75 275.092 564.268 274.871 563.656 274.871C562.797 274.871 562.165 275.366 561.762 276.355C561.371 277.345 561.176 278.882 561.176 280.965ZM590.199 292H583.402V263.445H597.074V269.207H590.199V275.32H596.566V281.082H590.199V292ZM617.66 269.871V292H612.621L611.859 289.285H611.547C611.195 289.975 610.785 290.555 610.316 291.023C609.848 291.479 609.307 291.818 608.695 292.039C608.083 292.273 607.38 292.391 606.586 292.391C605.297 292.391 604.19 292.072 603.266 291.434C602.354 290.796 601.658 289.878 601.176 288.68C600.694 287.469 600.453 286.004 600.453 284.285V269.871H606.938V282.156C606.938 283.641 607.061 284.76 607.309 285.516C607.569 286.271 608.018 286.648 608.656 286.648C609.438 286.648 610.004 286.408 610.355 285.926C610.707 285.444 610.928 284.767 611.02 283.895C611.124 283.022 611.176 281.993 611.176 280.809V269.871H617.66ZM629.516 269.52C631.273 269.52 632.777 269.91 634.027 270.691C635.277 271.473 636.228 272.612 636.879 274.109C637.543 275.607 637.875 277.436 637.875 279.598V282.996H627.309C627.309 284.48 627.615 285.561 628.227 286.238C628.852 286.902 629.802 287.234 631.078 287.234C632.094 287.234 633.038 287.104 633.91 286.844C634.783 286.583 635.727 286.141 636.742 285.516V290.809C635.792 291.368 634.77 291.772 633.676 292.02C632.582 292.267 631.397 292.391 630.121 292.391C627.986 292.391 626.241 291.961 624.887 291.102C623.546 290.229 622.556 288.947 621.918 287.254C621.28 285.561 620.961 283.491 620.961 281.043C620.961 278.569 621.28 276.479 621.918 274.773C622.569 273.055 623.526 271.753 624.789 270.867C626.065 269.969 627.641 269.52 629.516 269.52ZM629.672 274.52C628.995 274.52 628.428 274.812 627.973 275.398C627.53 275.984 627.309 277 627.309 278.445H631.879C631.879 277.508 631.788 276.753 631.605 276.18C631.423 275.594 631.163 275.171 630.824 274.91C630.499 274.65 630.115 274.52 629.672 274.52ZM647.445 292H640.961V261.609H647.445V292ZM662.309 268.875C661.645 268.875 661.052 269.083 660.531 269.5C660.01 269.904 659.574 270.496 659.223 271.277C658.871 272.046 658.604 272.983 658.422 274.09C658.24 275.197 658.148 276.447 658.148 277.84C658.148 279.767 658.311 281.375 658.637 282.664C658.975 283.953 659.477 284.917 660.141 285.555C660.805 286.193 661.638 286.512 662.641 286.512C663.565 286.512 664.451 286.336 665.297 285.984C666.156 285.633 667.016 285.21 667.875 284.715V290.809C666.964 291.342 665.974 291.74 664.906 292C663.852 292.26 662.732 292.391 661.547 292.391C659.281 292.391 657.367 291.831 655.805 290.711C654.255 289.591 653.077 287.944 652.27 285.77C651.475 283.595 651.078 280.939 651.078 277.801C651.078 275.6 651.319 273.595 651.801 271.785C652.296 269.975 653.005 268.419 653.93 267.117C654.854 265.815 655.967 264.812 657.27 264.109C658.585 263.393 660.069 263.035 661.723 263.035C662.986 263.035 664.197 263.198 665.355 263.523C666.527 263.849 667.686 264.357 668.832 265.047L667.035 270.633C666.28 270.099 665.518 269.676 664.75 269.363C663.982 269.038 663.168 268.875 662.309 268.875ZM680.434 269.48C682.634 269.48 684.372 270.138 685.648 271.453C686.938 272.768 687.582 274.78 687.582 277.488V292H682.914L681.82 289.07H681.703C681.234 289.812 680.733 290.431 680.199 290.926C679.678 291.421 679.079 291.785 678.402 292.02C677.738 292.267 676.944 292.391 676.02 292.391C674.757 292.391 673.741 292.046 672.973 291.355C672.204 290.665 671.645 289.773 671.293 288.68C670.954 287.586 670.785 286.44 670.785 285.242C670.785 282.872 671.417 281.102 672.68 279.93C673.956 278.758 675.805 278.126 678.227 278.035L681.117 277.918V277.352C681.117 276.453 680.941 275.776 680.59 275.32C680.251 274.865 679.717 274.637 678.988 274.637C678.35 274.637 677.641 274.773 676.859 275.047C676.091 275.307 675.212 275.717 674.223 276.277L672.543 271.473C673.624 270.835 674.828 270.346 676.156 270.008C677.484 269.656 678.91 269.48 680.434 269.48ZM681.117 282.117L679.906 282.195C679.034 282.234 678.376 282.488 677.934 282.957C677.491 283.413 677.27 284.083 677.27 284.969C677.27 285.724 677.4 286.29 677.66 286.668C677.921 287.046 678.311 287.234 678.832 287.234C679.47 287.234 680.01 286.948 680.453 286.375C680.896 285.789 681.117 285.021 681.117 284.07V282.117ZM704.438 285.203C704.438 286.792 704.138 288.12 703.539 289.188C702.94 290.255 702.074 291.056 700.941 291.59C699.822 292.124 698.467 292.391 696.879 292.391C695.798 292.391 694.737 292.299 693.695 292.117C692.654 291.935 691.618 291.616 690.59 291.16V285.047C691.397 285.529 692.283 285.952 693.246 286.316C694.223 286.668 695.206 286.844 696.195 286.844C696.794 286.844 697.243 286.746 697.543 286.551C697.842 286.342 697.992 286.01 697.992 285.555C697.992 285.307 697.927 285.073 697.797 284.852C697.68 284.617 697.387 284.337 696.918 284.012C696.449 283.686 695.701 283.27 694.672 282.762C693.773 282.306 693.018 281.753 692.406 281.102C691.794 280.438 691.332 279.682 691.02 278.836C690.707 277.99 690.551 277.046 690.551 276.004C690.551 273.947 691.176 272.345 692.426 271.199C693.676 270.053 695.453 269.48 697.758 269.48C698.904 269.48 699.984 269.643 701 269.969C702.016 270.281 703.051 270.743 704.105 271.355L702.523 276.277C701.859 275.835 701.156 275.451 700.414 275.125C699.672 274.799 698.917 274.637 698.148 274.637C697.693 274.637 697.354 274.721 697.133 274.891C696.911 275.06 696.801 275.32 696.801 275.672C696.801 275.906 696.859 276.121 696.977 276.316C697.107 276.512 697.393 276.759 697.836 277.059C698.279 277.345 698.969 277.768 699.906 278.328C700.805 278.823 701.592 279.389 702.27 280.027C702.947 280.665 703.474 281.408 703.852 282.254C704.242 283.087 704.438 284.07 704.438 285.203ZM716.02 286.805C716.423 286.805 716.859 286.74 717.328 286.609C717.81 286.466 718.318 286.277 718.852 286.043V291.16C718.135 291.564 717.38 291.87 716.586 292.078C715.805 292.286 714.958 292.391 714.047 292.391C712.602 292.391 711.43 292.117 710.531 291.57C709.633 291.01 708.975 290.164 708.559 289.031C708.142 287.885 707.934 286.447 707.934 284.715V275.203H705.688V271.766L708.5 270.086L710.023 265.438H714.418V269.871H718.578V275.203H714.418V284.637C714.418 285.353 714.548 285.893 714.809 286.258C715.069 286.622 715.473 286.805 716.02 286.805ZM729.438 269.52C731.195 269.52 732.699 269.91 733.949 270.691C735.199 271.473 736.15 272.612 736.801 274.109C737.465 275.607 737.797 277.436 737.797 279.598V282.996H727.23C727.23 284.48 727.536 285.561 728.148 286.238C728.773 286.902 729.724 287.234 731 287.234C732.016 287.234 732.96 287.104 733.832 286.844C734.704 286.583 735.648 286.141 736.664 285.516V290.809C735.714 291.368 734.691 291.772 733.598 292.02C732.504 292.267 731.319 292.391 730.043 292.391C727.908 292.391 726.163 291.961 724.809 291.102C723.467 290.229 722.478 288.947 721.84 287.254C721.202 285.561 720.883 283.491 720.883 281.043C720.883 278.569 721.202 276.479 721.84 274.773C722.491 273.055 723.448 271.753 724.711 270.867C725.987 269.969 727.562 269.52 729.438 269.52ZM729.594 274.52C728.917 274.52 728.35 274.812 727.895 275.398C727.452 275.984 727.23 277 727.23 278.445H731.801C731.801 277.508 731.71 276.753 731.527 276.18C731.345 275.594 731.085 275.171 730.746 274.91C730.421 274.65 730.036 274.52 729.594 274.52ZM751.762 269.48C752.022 269.48 752.289 269.493 752.562 269.52C752.836 269.546 753.174 269.611 753.578 269.715L753.051 276.688C752.79 276.596 752.497 276.531 752.172 276.492C751.846 276.453 751.475 276.434 751.059 276.434C750.421 276.434 749.867 276.531 749.398 276.727C748.943 276.922 748.565 277.208 748.266 277.586C747.979 277.951 747.764 278.413 747.621 278.973C747.478 279.52 747.406 280.158 747.406 280.887V292H740.922V269.871H745.883L746.82 273.406H747.133C747.393 272.807 747.745 272.208 748.188 271.609C748.63 270.997 749.151 270.49 749.75 270.086C750.362 269.682 751.033 269.48 751.762 269.48ZM762.133 281.922H756.527L755.57 263.445H763.051L762.133 281.922ZM755.609 288.758C755.609 287.56 755.922 286.635 756.547 285.984C757.185 285.333 758.116 285.008 759.34 285.008C760.499 285.008 761.384 285.333 761.996 285.984C762.621 286.635 762.934 287.56 762.934 288.758C762.934 289.943 762.615 290.861 761.977 291.512C761.339 292.163 760.46 292.488 759.34 292.488C758.194 292.488 757.283 292.163 756.605 291.512C755.941 290.861 755.609 289.943 755.609 288.758Z" fill="white"/>
<mask id="path-2-inside-1_84_3" fill="white">
<path d="M226.275 1237.57C512.977 1030.51 663.71 815.567 770.827 625.063C768.543 624.595 766.246 624.124 763.954 623.655C643.711 811.278 477.418 1026.54 165.661 1237.57H150.1C465.96 1026.2 634.029 810.189 755.083 621.839L748.954 620.588C613.292 804.957 428.154 1020.72 86.3243 1237.57H68.959C415.331 1020.3 602.586 803.763 739.224 618.608C737.476 618.253 735.729 617.898 733.977 617.543C581.203 797.28 375.468 1012.7 3.36759 1237.57H0V1228.12C366.955 1006.15 571.441 793.43 723.196 615.366C721.787 615.082 720.384 614.798 718.973 614.514C559.299 775.827 350.904 972.208 0 1188.76V1176.53C343.199 964.111 549.149 771.25 706.993 612.116L703.981 611.516C538.047 753.911 327.888 930.513 0 1137.73V1124.82C319.669 922.331 526.814 749.194 690.5 608.847L688.98 608.549C663.884 626.578 637.944 645.315 610.982 664.79C453.198 778.762 260.69 917.814 0 1086.55V1072.93C257.556 906.017 448.364 768.195 604.951 655.087C627.785 638.593 649.893 622.625 671.376 607.167C657.094 615.598 642.591 624.23 627.834 633.087C459.365 734.206 258.841 863.687 0 1035.21V1020.85C256.149 851.167 455.029 722.805 622.316 622.396C628.352 618.773 634.347 615.187 640.302 611.636C461.027 697.13 252.31 812.742 0 983.696V968.582C237.216 808.253 435.863 696.834 607.754 613.274C427.892 680.668 224.712 776.644 0 931.95V916.107C210.598 771.361 402.214 678.467 573.42 612.164C394.554 662.663 198.698 740.536 0 880.014V863.443C185.59 734.437 368.431 658.579 537.224 608.257C361.113 643.198 174.359 704.492 0 827.923V810.581C162.349 697.435 334.767 637.118 499.272 601.368C327.84 622.224 151.866 668.476 0 775.659V757.656C141.029 660.42 301.568 614.131 459.839 591.401C295.089 599.786 131.393 632.524 0 723.313V704.831C121.808 623.41 269.289 589.668 419.393 578.297C263.345 575.951 113.135 596.707 0 671.152V652.27C104.584 586.566 237.871 563.898 377.708 562.099C232.566 550.942 97.0215 561.286 0 619.503V600.396C144.923 518.651 365.799 534.995 579.124 571.293C588.061 572.118 596.984 572.982 605.883 573.885C614.796 574.056 623.687 574.265 632.545 574.516C641.048 574.012 649.523 573.545 657.959 573.119C666.277 571.92 674.562 570.76 682.8 569.643C690.764 567.763 698.689 565.922 706.565 564.126C714.384 561.496 722.16 558.908 729.88 556.369C737.329 553.046 744.731 549.767 752.077 546.541C759.256 542.47 766.381 538.451 773.454 534.486C780.328 529.667 787.147 524.906 793.914 520.205C800.518 514.593 807.066 509.046 813.564 503.567C819.793 497.238 825.97 490.983 832.102 484.801C838.084 477.609 844.017 470.502 849.91 463.481C855.422 455.705 860.892 448.019 866.332 440.427C871.552 431.834 876.738 423.344 881.903 414.962C956.238 272.89 1025.09 157.666 1145.49 89V98.4694C1056.31 150.508 995.775 229.263 939.502 326.02C997.705 242.008 1059.88 173.487 1145.49 126.613V136.618C1055.38 187.053 991.455 262.542 929.908 355.288C993.342 275.093 1058.91 209.669 1145.49 164.265V174.798C1054.54 223.493 986.839 295.209 919.55 383.354C988.715 307.572 1058.06 245.744 1145.49 201.943V213.027C1053.83 259.823 981.96 327.213 908.461 410.118C983.858 339.412 1057.38 281.754 1145.49 239.701V251.261C1053.29 295.989 976.838 358.432 896.684 435.395C978.816 370.468 1056.93 317.599 1145.49 277.471V289.561C1053.03 332.017 971.66 388.774 884.556 458.939C973.792 400.632 1056.85 353.287 1145.49 315.292V327.901C1053.08 367.885 966.482 418.235 872.19 480.779C968.792 429.956 1057.12 388.873 1145.49 353.191V366.252C1053.59 403.529 961.567 446.761 859.983 500.87C939.856 468.261 1013.67 440.595 1083.3 414.501C1104.39 406.595 1125.11 398.832 1145.49 391.118V404.676C1126.37 411.903 1106.95 419.179 1087.2 426.581C1013.13 454.341 934.311 483.884 848.474 519.289C882.358 509.15 915.119 499.652 946.732 490.486C1018.98 469.541 1085.24 450.329 1145.15 429.221C1145.26 429.181 1145.38 429.146 1145.49 429.113V443.157C1086.1 463.928 1020.9 482.832 949.936 503.405C913.881 513.858 876.328 524.748 837.316 536.525C856.921 532.636 876.151 528.891 894.969 525.228C989.488 506.825 1073.7 490.429 1144.14 467.585C1144.59 467.441 1145.04 467.352 1145.49 467.315V481.687C1075.14 504.266 991.259 520.599 897.244 538.903C874.448 543.341 851.046 547.899 827.098 552.691C839.905 551.345 852.558 550.037 865.03 548.747C974 537.481 1069.65 527.592 1143.15 505.973C1143.93 505.742 1144.73 505.672 1145.49 505.745V520.253C1071.01 541.972 975.28 551.872 866.292 563.139C850.537 564.768 834.496 566.428 818.207 568.156C826.792 567.996 835.31 567.844 843.747 567.694C963.758 565.556 1068.18 563.696 1142.19 544.329C1143.32 544.036 1144.44 544.055 1145.49 544.334V558.914L1145.47 558.922C1069.99 578.672 964.828 580.545 843.966 582.698C833.048 582.893 821.995 583.091 810.827 583.304C816.134 583.632 821.425 583.959 826.676 584.284C956.13 592.308 1068.13 599.251 1141.28 582.681C1142.75 582.352 1144.2 582.528 1145.49 583.099V597.517C1145.09 597.695 1144.66 597.836 1144.22 597.935C1069.21 614.927 956.343 607.931 825.883 599.844C818.962 599.416 811.987 598.984 804.966 598.552L811.959 599.505C949.878 618.312 1068.76 634.523 1140.38 621.028C1142.21 620.683 1144.01 621.087 1145.49 622.036V635.948C1144.73 636.433 1143.88 636.781 1142.96 636.954C1069.27 650.838 949.286 634.476 810.082 615.495L800.984 614.254C945.925 644.076 1070.44 669.56 1139.56 659.404C1141.77 659.084 1143.89 659.804 1145.49 661.215V674.135C1144.42 675.083 1143.1 675.731 1141.62 675.945C1069.59 686.53 942.931 660.47 795.635 630.163C790.108 629.026 784.542 627.881 778.957 626.734C672.54 816.573 523.36 1030.81 240.29 1237.57H226.275Z"/>
</mask>
<path d="M226.275 1237.57C512.977 1030.51 663.71 815.567 770.827 625.063C768.543 624.595 766.246 624.124 763.954 623.655C643.711 811.278 477.418 1026.54 165.661 1237.57H150.1C465.96 1026.2 634.029 810.189 755.083 621.839L748.954 620.588C613.292 804.957 428.154 1020.72 86.3243 1237.57H68.959C415.331 1020.3 602.586 803.763 739.224 618.608C737.476 618.253 735.729 617.898 733.977 617.543C581.203 797.28 375.468 1012.7 3.36759 1237.57H0V1228.12C366.955 1006.15 571.441 793.43 723.196 615.366C721.787 615.082 720.384 614.798 718.973 614.514C559.299 775.827 350.904 972.208 0 1188.76V1176.53C343.199 964.111 549.149 771.25 706.993 612.116L703.981 611.516C538.047 753.911 327.888 930.513 0 1137.73V1124.82C319.669 922.331 526.814 749.194 690.5 608.847L688.98 608.549C663.884 626.578 637.944 645.315 610.982 664.79C453.198 778.762 260.69 917.814 0 1086.55V1072.93C257.556 906.017 448.364 768.195 604.951 655.087C627.785 638.593 649.893 622.625 671.376 607.167C657.094 615.598 642.591 624.23 627.834 633.087C459.365 734.206 258.841 863.687 0 1035.21V1020.85C256.149 851.167 455.029 722.805 622.316 622.396C628.352 618.773 634.347 615.187 640.302 611.636C461.027 697.13 252.31 812.742 0 983.696V968.582C237.216 808.253 435.863 696.834 607.754 613.274C427.892 680.668 224.712 776.644 0 931.95V916.107C210.598 771.361 402.214 678.467 573.42 612.164C394.554 662.663 198.698 740.536 0 880.014V863.443C185.59 734.437 368.431 658.579 537.224 608.257C361.113 643.198 174.359 704.492 0 827.923V810.581C162.349 697.435 334.767 637.118 499.272 601.368C327.84 622.224 151.866 668.476 0 775.659V757.656C141.029 660.42 301.568 614.131 459.839 591.401C295.089 599.786 131.393 632.524 0 723.313V704.831C121.808 623.41 269.289 589.668 419.393 578.297C263.345 575.951 113.135 596.707 0 671.152V652.27C104.584 586.566 237.871 563.898 377.708 562.099C232.566 550.942 97.0215 561.286 0 619.503V600.396C144.923 518.651 365.799 534.995 579.124 571.293C588.061 572.118 596.984 572.982 605.883 573.885C614.796 574.056 623.687 574.265 632.545 574.516C641.048 574.012 649.523 573.545 657.959 573.119C666.277 571.92 674.562 570.76 682.8 569.643C690.764 567.763 698.689 565.922 706.565 564.126C714.384 561.496 722.16 558.908 729.88 556.369C737.329 553.046 744.731 549.767 752.077 546.541C759.256 542.47 766.381 538.451 773.454 534.486C780.328 529.667 787.147 524.906 793.914 520.205C800.518 514.593 807.066 509.046 813.564 503.567C819.793 497.238 825.97 490.983 832.102 484.801C838.084 477.609 844.017 470.502 849.91 463.481C855.422 455.705 860.892 448.019 866.332 440.427C871.552 431.834 876.738 423.344 881.903 414.962C956.238 272.89 1025.09 157.666 1145.49 89V98.4694C1056.31 150.508 995.775 229.263 939.502 326.02C997.705 242.008 1059.88 173.487 1145.49 126.613V136.618C1055.38 187.053 991.455 262.542 929.908 355.288C993.342 275.093 1058.91 209.669 1145.49 164.265V174.798C1054.54 223.493 986.839 295.209 919.55 383.354C988.715 307.572 1058.06 245.744 1145.49 201.943V213.027C1053.83 259.823 981.96 327.213 908.461 410.118C983.858 339.412 1057.38 281.754 1145.49 239.701V251.261C1053.29 295.989 976.838 358.432 896.684 435.395C978.816 370.468 1056.93 317.599 1145.49 277.471V289.561C1053.03 332.017 971.66 388.774 884.556 458.939C973.792 400.632 1056.85 353.287 1145.49 315.292V327.901C1053.08 367.885 966.482 418.235 872.19 480.779C968.792 429.956 1057.12 388.873 1145.49 353.191V366.252C1053.59 403.529 961.567 446.761 859.983 500.87C939.856 468.261 1013.67 440.595 1083.3 414.501C1104.39 406.595 1125.11 398.832 1145.49 391.118V404.676C1126.37 411.903 1106.95 419.179 1087.2 426.581C1013.13 454.341 934.311 483.884 848.474 519.289C882.358 509.15 915.119 499.652 946.732 490.486C1018.98 469.541 1085.24 450.329 1145.15 429.221C1145.26 429.181 1145.38 429.146 1145.49 429.113V443.157C1086.1 463.928 1020.9 482.832 949.936 503.405C913.881 513.858 876.328 524.748 837.316 536.525C856.921 532.636 876.151 528.891 894.969 525.228C989.488 506.825 1073.7 490.429 1144.14 467.585C1144.59 467.441 1145.04 467.352 1145.49 467.315V481.687C1075.14 504.266 991.259 520.599 897.244 538.903C874.448 543.341 851.046 547.899 827.098 552.691C839.905 551.345 852.558 550.037 865.03 548.747C974 537.481 1069.65 527.592 1143.15 505.973C1143.93 505.742 1144.73 505.672 1145.49 505.745V520.253C1071.01 541.972 975.28 551.872 866.292 563.139C850.537 564.768 834.496 566.428 818.207 568.156C826.792 567.996 835.31 567.844 843.747 567.694C963.758 565.556 1068.18 563.696 1142.19 544.329C1143.32 544.036 1144.44 544.055 1145.49 544.334V558.914L1145.47 558.922C1069.99 578.672 964.828 580.545 843.966 582.698C833.048 582.893 821.995 583.091 810.827 583.304C816.134 583.632 821.425 583.959 826.676 584.284C956.13 592.308 1068.13 599.251 1141.28 582.681C1142.75 582.352 1144.2 582.528 1145.49 583.099V597.517C1145.09 597.695 1144.66 597.836 1144.22 597.935C1069.21 614.927 956.343 607.931 825.883 599.844C818.962 599.416 811.987 598.984 804.966 598.552L811.959 599.505C949.878 618.312 1068.76 634.523 1140.38 621.028C1142.21 620.683 1144.01 621.087 1145.49 622.036V635.948C1144.73 636.433 1143.88 636.781 1142.96 636.954C1069.27 650.838 949.286 634.476 810.082 615.495L800.984 614.254C945.925 644.076 1070.44 669.56 1139.56 659.404C1141.77 659.084 1143.89 659.804 1145.49 661.215V674.135C1144.42 675.083 1143.1 675.731 1141.62 675.945C1069.59 686.53 942.931 660.47 795.635 630.163C790.108 629.026 784.542 627.881 778.957 626.734C672.54 816.573 523.36 1030.81 240.29 1237.57H226.275Z" fill="#01F68D" fill-opacity="0.03" stroke="#192140" stroke-width="2" mask="url(#path-2-inside-1_84_3)"/>
<path d="M242.535 328.987C229.462 329.137 219.003 339.745 219.003 352.818C219.003 356.329 219.75 359.766 221.169 362.754C224.681 371.27 232.002 380.011 240.294 389.797C241.639 391.366 244.104 391.366 245.448 389.797C253.741 380.011 261.062 371.196 264.573 362.754C265.992 359.691 266.739 356.255 266.739 352.669C266.665 339.521 255.683 328.838 242.535 328.987ZM242.834 366.415C235.363 366.415 229.312 360.363 229.312 352.893C229.312 345.348 235.363 339.297 242.834 339.297C250.304 339.297 256.355 345.348 256.355 352.818C256.355 360.289 250.304 366.415 242.834 366.415Z" fill="#01F68D"/>
<path d="M242.834 398.984C247.826 398.984 251.873 397.746 251.873 396.22C251.873 394.693 247.826 393.456 242.834 393.456C237.841 393.456 233.794 394.693 233.794 396.22C233.794 397.746 237.841 398.984 242.834 398.984Z" fill="#01F68D"/>
<path d="M314.32 391L305.707 357.401H305.434C305.548 358.905 305.639 360.364 305.707 361.776C305.798 363.166 305.867 364.488 305.912 365.741C305.958 366.994 305.98 368.179 305.98 369.296V391H294.872V341.029H311.176L318.935 371.039H319.14L326.933 341.029H343.1V391H331.684V369.091C331.684 367.838 331.706 366.596 331.752 365.365C331.798 364.112 331.854 362.825 331.923 361.503C331.991 360.181 332.071 358.814 332.162 357.401H331.889L323.139 391H314.32ZM362.172 352.274V391H350.824V352.274H362.172ZM356.498 336.688C358.594 336.688 360.121 337.19 361.078 338.192C362.035 339.195 362.514 340.676 362.514 342.636C362.514 344.595 362.012 346.065 361.01 347.045C360.007 348.025 358.503 348.515 356.498 348.515C354.516 348.515 353.012 348.025 351.986 347.045C350.984 346.065 350.482 344.595 350.482 342.636C350.482 340.631 350.961 339.138 351.918 338.158C352.875 337.178 354.402 336.688 356.498 336.688ZM388.832 351.591C392.182 351.591 394.791 352.833 396.659 355.316C398.528 357.8 399.462 361.298 399.462 365.81V391H388.114V369.433C388.114 366.881 387.909 364.955 387.499 363.656C387.089 362.335 386.177 361.674 384.765 361.674C383.17 361.674 382.087 362.517 381.518 364.203C380.971 365.889 380.697 368.92 380.697 373.295V391H369.35V352.274H378.236L379.501 357.06H380.15C380.743 355.829 381.449 354.815 382.27 354.018C383.09 353.197 384.047 352.593 385.141 352.206C386.234 351.796 387.465 351.591 388.832 351.591ZM421.474 381.908C422.18 381.908 422.943 381.794 423.764 381.566C424.607 381.316 425.495 380.985 426.43 380.575V389.53C425.176 390.237 423.855 390.772 422.465 391.137C421.098 391.501 419.617 391.684 418.021 391.684C415.492 391.684 413.441 391.205 411.869 390.248C410.297 389.268 409.146 387.787 408.417 385.805C407.688 383.799 407.323 381.282 407.323 378.251V361.605H403.393V355.59L408.314 352.65L410.98 344.516H418.671V352.274H425.951V361.605H418.671V378.114C418.671 379.368 418.899 380.313 419.354 380.951C419.81 381.589 420.517 381.908 421.474 381.908ZM440.17 352.274H452.064L456.132 369.091C456.314 369.888 456.485 370.686 456.645 371.483C456.804 372.281 456.941 373.033 457.055 373.739C457.169 374.423 457.237 375.038 457.26 375.585H457.533C457.602 374.81 457.727 373.922 457.909 372.919C458.091 371.894 458.365 370.663 458.729 369.228L462.489 352.274H474.247L462.558 393.461C461.555 396.97 460.404 399.773 459.105 401.869C457.829 403.988 456.326 405.504 454.594 406.415C452.885 407.349 450.857 407.816 448.51 407.816C447.598 407.816 446.732 407.759 445.912 407.646C445.092 407.532 444.317 407.395 443.588 407.235V397.289C444.044 397.449 444.511 397.562 444.989 397.631C445.491 397.699 445.958 397.733 446.391 397.733C447.325 397.733 448.065 397.574 448.612 397.255C449.182 396.959 449.683 396.332 450.116 395.375C450.572 394.441 451.085 393.028 451.654 391.137L451.859 390.453L440.17 352.274ZM508.222 371.552C508.222 374.035 507.948 376.474 507.401 378.866C506.877 381.236 506 383.389 504.77 385.326C503.539 387.263 501.91 388.812 499.882 389.975C497.877 391.114 495.382 391.684 492.396 391.684C489.662 391.684 487.304 391.125 485.321 390.009C483.339 388.869 481.71 387.354 480.434 385.463C479.158 383.549 478.212 381.396 477.597 379.003C476.981 376.588 476.674 374.104 476.674 371.552C476.674 367.838 477.209 364.477 478.28 361.469C479.351 358.438 481.049 356.034 483.373 354.257C485.72 352.479 488.773 351.591 492.533 351.591C495.678 351.591 498.424 352.377 500.771 353.949C503.118 355.499 504.94 357.755 506.239 360.717C507.561 363.679 508.222 367.291 508.222 371.552ZM488.124 371.688C488.124 373.99 488.272 375.927 488.568 377.499C488.887 379.071 489.366 380.256 490.004 381.054C490.642 381.851 491.462 382.25 492.465 382.25C493.536 382.25 494.379 381.863 494.994 381.088C495.609 380.29 496.054 379.094 496.327 377.499C496.601 375.904 496.737 373.922 496.737 371.552C496.737 369.182 496.601 367.222 496.327 365.673C496.054 364.123 495.609 362.961 494.994 362.187C494.379 361.412 493.536 361.024 492.465 361.024C490.961 361.024 489.856 361.89 489.149 363.622C488.466 365.354 488.124 368.043 488.124 371.688ZM544.11 352.274V391H535.292L533.959 386.249H533.412C532.797 387.457 532.079 388.471 531.259 389.291C530.438 390.089 529.493 390.681 528.422 391.068C527.351 391.479 526.12 391.684 524.73 391.684C522.475 391.684 520.538 391.125 518.92 390.009C517.325 388.892 516.106 387.286 515.263 385.189C514.42 383.07 513.998 380.507 513.998 377.499V352.274H525.346V373.773C525.346 376.371 525.562 378.331 525.995 379.652C526.451 380.974 527.237 381.635 528.354 381.635C529.721 381.635 530.712 381.213 531.327 380.37C531.942 379.527 532.33 378.342 532.489 376.815C532.672 375.289 532.763 373.489 532.763 371.415V352.274H544.11ZM570.155 351.591C570.611 351.591 571.078 351.614 571.557 351.659C572.035 351.705 572.628 351.819 573.334 352.001L572.411 364.203C571.955 364.044 571.443 363.93 570.873 363.861C570.303 363.793 569.654 363.759 568.925 363.759C567.808 363.759 566.84 363.93 566.02 364.271C565.222 364.613 564.561 365.115 564.037 365.775C563.536 366.413 563.16 367.222 562.909 368.202C562.659 369.159 562.533 370.276 562.533 371.552V391H551.186V352.274H559.867L561.508 358.461H562.055C562.51 357.413 563.126 356.365 563.9 355.316C564.675 354.245 565.587 353.357 566.635 352.65C567.706 351.944 568.879 351.591 570.155 351.591ZM604.745 381.908C605.451 381.908 606.215 381.794 607.035 381.566C607.878 381.316 608.767 380.985 609.701 380.575V389.53C608.448 390.237 607.126 390.772 605.736 391.137C604.369 391.501 602.888 391.684 601.293 391.684C598.764 391.684 596.713 391.205 595.141 390.248C593.568 389.268 592.418 387.787 591.688 385.805C590.959 383.799 590.595 381.282 590.595 378.251V361.605H586.664V355.59L591.586 352.65L594.252 344.516H601.942V352.274H609.223V361.605H601.942V378.114C601.942 379.368 602.17 380.313 602.626 380.951C603.082 381.589 603.788 381.908 604.745 381.908ZM644.804 371.552C644.804 374.035 644.53 376.474 643.983 378.866C643.459 381.236 642.582 383.389 641.352 385.326C640.121 387.263 638.492 388.812 636.464 389.975C634.459 391.114 631.964 391.684 628.979 391.684C626.244 391.684 623.886 391.125 621.903 390.009C619.921 388.869 618.292 387.354 617.016 385.463C615.74 383.549 614.794 381.396 614.179 379.003C613.563 376.588 613.256 374.104 613.256 371.552C613.256 367.838 613.791 364.477 614.862 361.469C615.933 358.438 617.631 356.034 619.955 354.257C622.302 352.479 625.355 351.591 629.115 351.591C632.26 351.591 635.006 352.377 637.353 353.949C639.7 355.499 641.522 357.755 642.821 360.717C644.143 363.679 644.804 367.291 644.804 371.552ZM624.706 371.688C624.706 373.99 624.854 375.927 625.15 377.499C625.469 379.071 625.948 380.256 626.586 381.054C627.224 381.851 628.044 382.25 629.047 382.25C630.118 382.25 630.961 381.863 631.576 381.088C632.191 380.29 632.636 379.094 632.909 377.499C633.183 375.904 633.319 373.922 633.319 371.552C633.319 369.182 633.183 367.222 632.909 365.673C632.636 364.123 632.191 362.961 631.576 362.187C630.961 361.412 630.118 361.024 629.047 361.024C627.543 361.024 626.438 361.89 625.731 363.622C625.048 365.354 624.706 368.043 624.706 371.688ZM661.996 337.816V358.939C661.996 360.717 661.962 362.483 661.894 364.237C661.825 365.969 661.7 367.678 661.518 369.364H661.723C662.224 368.293 662.725 367.268 663.227 366.288C663.751 365.285 664.229 364.42 664.662 363.69L671.396 352.274H683.563L673.139 368.749L683.974 391H671.532L665.277 376.918L661.996 379.721V391H650.648V337.816H661.996ZM700.893 351.659C703.969 351.659 706.601 352.343 708.788 353.71C710.976 355.077 712.639 357.071 713.778 359.691C714.94 362.312 715.521 365.513 715.521 369.296V375.243H697.03C697.03 377.841 697.566 379.732 698.637 380.917C699.73 382.079 701.394 382.66 703.627 382.66C705.404 382.66 707.056 382.432 708.583 381.977C710.11 381.521 711.762 380.746 713.539 379.652V388.915C711.876 389.895 710.087 390.601 708.173 391.034C706.259 391.467 704.185 391.684 701.952 391.684C698.215 391.684 695.162 390.932 692.792 389.428C690.445 387.901 688.713 385.657 687.597 382.694C686.48 379.732 685.922 376.109 685.922 371.825C685.922 367.496 686.48 363.839 687.597 360.854C688.736 357.846 690.411 355.567 692.621 354.018C694.854 352.445 697.611 351.659 700.893 351.659ZM701.166 360.409C699.981 360.409 698.99 360.922 698.192 361.947C697.418 362.973 697.03 364.75 697.03 367.279H705.028C705.028 365.639 704.869 364.317 704.55 363.314C704.231 362.289 703.775 361.549 703.183 361.093C702.613 360.637 701.941 360.409 701.166 360.409ZM740.404 351.591C743.754 351.591 746.363 352.833 748.231 355.316C750.1 357.8 751.034 361.298 751.034 365.81V391H739.687V369.433C739.687 366.881 739.481 364.955 739.071 363.656C738.661 362.335 737.75 361.674 736.337 361.674C734.742 361.674 733.66 362.517 733.09 364.203C732.543 365.889 732.27 368.92 732.27 373.295V391H720.922V352.274H729.809L731.073 357.06H731.723C732.315 355.829 733.021 354.815 733.842 354.018C734.662 353.197 735.619 352.593 736.713 352.206C737.807 351.796 739.037 351.591 740.404 351.591ZM780.531 379.105C780.531 381.885 780.007 384.21 778.959 386.078C777.911 387.947 776.396 389.348 774.413 390.282C772.453 391.216 770.084 391.684 767.304 391.684C765.412 391.684 763.555 391.524 761.732 391.205C759.91 390.886 758.098 390.328 756.298 389.53V378.832C757.711 379.675 759.26 380.416 760.946 381.054C762.655 381.669 764.376 381.977 766.107 381.977C767.156 381.977 767.942 381.806 768.466 381.464C768.99 381.099 769.252 380.518 769.252 379.721C769.252 379.288 769.138 378.878 768.91 378.49C768.705 378.08 768.192 377.59 767.372 377.021C766.552 376.451 765.242 375.722 763.441 374.833C761.869 374.035 760.548 373.067 759.477 371.928C758.406 370.766 757.597 369.444 757.05 367.963C756.503 366.482 756.229 364.83 756.229 363.007C756.229 359.407 757.323 356.604 759.511 354.599C761.698 352.593 764.809 351.591 768.842 351.591C770.847 351.591 772.738 351.876 774.516 352.445C776.293 352.992 778.104 353.801 779.95 354.872L777.182 363.485C776.02 362.711 774.789 362.038 773.49 361.469C772.191 360.899 770.87 360.614 769.525 360.614C768.728 360.614 768.135 360.762 767.748 361.059C767.361 361.355 767.167 361.811 767.167 362.426C767.167 362.836 767.27 363.212 767.475 363.554C767.702 363.896 768.204 364.328 768.979 364.853C769.753 365.354 770.961 366.094 772.602 367.074C774.174 367.94 775.552 368.931 776.737 370.048C777.922 371.164 778.845 372.463 779.506 373.944C780.189 375.403 780.531 377.123 780.531 379.105ZM809.379 337.816V347.523C809.379 349.118 809.311 350.725 809.174 352.343C809.037 353.938 808.809 355.51 808.49 357.06H809.105C809.63 355.829 810.279 354.815 811.054 354.018C811.828 353.197 812.751 352.593 813.822 352.206C814.916 351.796 816.146 351.591 817.514 351.591C819.747 351.591 821.649 352.149 823.222 353.266C824.817 354.382 826.036 356 826.879 358.119C827.722 360.238 828.144 362.802 828.144 365.81V391H816.796V369.433C816.796 366.858 816.545 364.921 816.044 363.622C815.565 362.323 814.813 361.674 813.788 361.674C812.558 361.674 811.623 362.084 810.985 362.904C810.37 363.725 809.949 365.001 809.721 366.732C809.493 368.441 809.379 370.629 809.379 373.295V391H798.031V337.816H809.379ZM848.822 351.659C851.898 351.659 854.53 352.343 856.718 353.71C858.905 355.077 860.569 357.071 861.708 359.691C862.87 362.312 863.451 365.513 863.451 369.296V375.243H844.96C844.96 377.841 845.495 379.732 846.566 380.917C847.66 382.079 849.324 382.66 851.557 382.66C853.334 382.66 854.986 382.432 856.513 381.977C858.039 381.521 859.691 380.746 861.469 379.652V388.915C859.805 389.895 858.017 390.601 856.103 391.034C854.188 391.467 852.115 391.684 849.882 391.684C846.145 391.684 843.091 390.932 840.722 389.428C838.375 387.901 836.643 385.657 835.526 382.694C834.41 379.732 833.852 376.109 833.852 371.825C833.852 367.496 834.41 363.839 835.526 360.854C836.666 357.846 838.34 355.567 840.551 354.018C842.784 352.445 845.541 351.659 848.822 351.659ZM849.096 360.409C847.911 360.409 846.92 360.922 846.122 361.947C845.347 362.973 844.96 364.75 844.96 367.279H852.958C852.958 365.639 852.799 364.317 852.479 363.314C852.16 362.289 851.705 361.549 851.112 361.093C850.543 360.637 849.87 360.409 849.096 360.409ZM887.89 351.591C888.345 351.591 888.812 351.614 889.291 351.659C889.77 351.705 890.362 351.819 891.068 352.001L890.146 364.203C889.69 364.044 889.177 363.93 888.607 363.861C888.038 363.793 887.388 363.759 886.659 363.759C885.543 363.759 884.574 363.93 883.754 364.271C882.956 364.613 882.296 365.115 881.771 365.775C881.27 366.413 880.894 367.222 880.644 368.202C880.393 369.159 880.268 370.276 880.268 371.552V391H868.92V352.274H877.602L879.242 358.461H879.789C880.245 357.413 880.86 356.365 881.635 355.316C882.41 354.245 883.321 353.357 884.369 352.65C885.44 351.944 886.614 351.591 887.89 351.591ZM908.842 351.659C911.918 351.659 914.55 352.343 916.737 353.71C918.925 355.077 920.588 357.071 921.728 359.691C922.89 362.312 923.471 365.513 923.471 369.296V375.243H904.979C904.979 377.841 905.515 379.732 906.586 380.917C907.68 382.079 909.343 382.66 911.576 382.66C913.354 382.66 915.006 382.432 916.532 381.977C918.059 381.521 919.711 380.746 921.488 379.652V388.915C919.825 389.895 918.036 390.601 916.122 391.034C914.208 391.467 912.134 391.684 909.901 391.684C906.164 391.684 903.111 390.932 900.741 389.428C898.394 387.901 896.662 385.657 895.546 382.694C894.429 379.732 893.871 376.109 893.871 371.825C893.871 367.496 894.429 363.839 895.546 360.854C896.685 357.846 898.36 355.567 900.57 354.018C902.803 352.445 905.561 351.659 908.842 351.659ZM909.115 360.409C907.93 360.409 906.939 360.922 906.142 361.947C905.367 362.973 904.979 364.75 904.979 367.279H912.978C912.978 365.639 912.818 364.317 912.499 363.314C912.18 362.289 911.724 361.549 911.132 361.093C910.562 360.637 909.89 360.409 909.115 360.409Z" fill="#01F68D"/>
<mask id="path-6-inside-2_84_3" fill="white">
<path d="M959.329 1260.97C1138.79 956.23 1190.56 698.859 1212.19 481.379C1209.91 481.866 1207.61 482.358 1205.33 482.848C1170.52 702.96 1104.63 966.871 903.814 1285.31L889.561 1291.55C1094 971.16 1161.21 705.849 1196.47 484.746L1190.36 486.061C1140.12 709.382 1057.17 981.315 831.15 1317.16L815.245 1324.13C1045.26 986.082 1129.84 712.586 1180.65 488.154C1178.91 488.53 1177.17 488.906 1175.42 489.285C1107.65 715.233 1005.7 995.127 755.171 1350.46L752.087 1351.81L748.291 1343.15C995.27 992.537 1097.16 715.625 1164.67 491.618C1163.26 491.924 1161.87 492.227 1160.46 492.534C1078.98 704.378 966.946 967.899 732.491 1307.1L727.583 1295.9C956.638 963.576 1067.84 704.261 1148.52 495.147L1145.53 495.806C1050.71 692.837 929.127 938.95 712.007 1260.37L706.822 1248.54C918.315 934.756 1038.53 693.025 1132.11 498.773L1130.59 499.11C1114.85 525.698 1098.61 553.272 1081.74 581.932C982.977 749.66 862.484 954.296 691.46 1213.49L685.994 1201.02C854.877 944.749 974.307 741.922 1072.32 575.467C1086.61 551.194 1100.45 527.694 1113.92 504.912C1104.22 518.367 1094.4 532.095 1084.44 546.132C970.739 706.375 839.061 905.464 670.849 1166.47L665.086 1153.32C831.57 895.078 962.19 697.674 1075.1 538.554C1079.17 532.813 1083.22 527.122 1087.25 521.479C957.377 671.751 812.628 861.426 650.17 1119.29L644.102 1105.45C797.001 863.374 934.211 681.582 1058.1 536.046C920.42 669.976 772.86 839.444 629.397 1071.89L623.037 1057.38C757.813 840.271 896.019 678.268 1026.21 548.813C882.659 666.868 734.539 816.815 608.548 1024.33L601.895 1009.15C720.085 816.492 857.093 673.614 991.487 559.765C844.217 662.465 697.778 793.574 587.636 976.618L580.674 960.735C683.945 791.932 817.646 667.473 953.962 568.69C805.323 656.613 662.718 769.617 566.655 928.75L559.427 912.262C649.559 766.59 778.011 659.747 913.845 575.392C766.319 649.21 629.534 744.908 545.641 880.807L538.221 863.88C617.097 740.409 738.627 650.3 871.54 579.627C727.676 640.123 598.434 719.434 524.701 833.034L517.121 815.741C586.531 713.579 699.506 639.31 826.859 581.526C689.447 629.574 569.456 693.461 503.967 785.73L496.297 768.23C596.214 635.182 805.071 561.482 1015.02 509.089C1023.54 506.258 1032.06 503.467 1040.57 500.721C1048.8 497.299 1057.03 493.922 1065.24 490.596C1072.83 486.721 1080.4 482.891 1087.96 479.114C1095.1 474.677 1102.22 470.288 1109.32 465.958C1115.86 461.04 1122.38 456.172 1128.87 451.365C1134.97 445.818 1141.06 440.325 1147.11 434.901C1152.6 428.867 1158.06 422.892 1163.49 416.989C1168.43 410.378 1173.35 403.837 1178.23 397.366C1182.59 390.193 1186.93 383.095 1191.24 376.073C1195.03 368.282 1198.8 360.573 1202.56 352.946C1205.72 344.649 1208.87 336.44 1212 328.317C1214.59 319.328 1217.17 310.437 1219.75 301.641C1221.68 292.306 1223.6 283.071 1225.54 273.933C1226.87 263.968 1228.21 254.111 1229.58 244.36C1240.62 84.3965 1257.43 -48.7738 1340.14 -160L1343.94 -151.327C1283.15 -67.8628 1259.32 28.5684 1246.63 139.777C1266.21 39.4661 1295.64 -48.2501 1355.24 -125.551L1359.25 -116.387C1296.97 -34.0193 1268.73 60.7822 1249.59 170.434C1275.49 71.5194 1309.28 -14.7233 1370.35 -91.0658L1374.58 -81.4189C1310.83 -0.307197 1277.61 92.5541 1251.37 200.297C1284.29 103.124 1322.98 18.659 1385.48 -56.5576L1389.93 -46.4056C1324.76 33.2514 1285.99 123.825 1251.96 229.262C1292.63 134.236 1336.82 51.9125 1400.64 -21.975L1405.28 -11.3875C1338.79 66.5905 1293.83 154.473 1251.32 257.141C1300.48 164.703 1350.8 84.9211 1415.8 12.6173L1420.65 23.6906C1353.01 99.6928 1301.27 184.342 1249.66 283.572C1307.98 194.347 1365.05 117.64 1430.98 47.2575L1436.04 58.8053C1367.46 132.524 1308.35 213.404 1247.1 308.54C1315.18 223.212 1379.58 150.127 1446.2 81.968L1451.44 93.9308C1382.23 164.966 1315.3 241.503 1243.99 331.841C1304.05 269.91 1360.55 214.941 1413.84 163.09C1429.99 147.379 1445.85 131.953 1461.42 116.705L1466.86 129.122C1452.25 143.419 1437.39 157.877 1422.27 172.585C1365.57 227.747 1305.24 286.446 1240.84 353.332C1267.8 330.443 1294 308.592 1319.27 287.506C1377.03 239.32 1430.01 195.122 1476.4 151.741C1476.49 151.658 1476.58 151.58 1476.67 151.504L1482.31 164.366C1436.25 207.234 1384.13 250.721 1327.39 298.052C1298.57 322.1 1268.54 347.149 1237.54 373.597C1253.93 362.164 1270.04 351.015 1285.81 340.105C1364.99 285.307 1435.54 236.481 1490.88 187.282C1491.24 186.97 1491.61 186.707 1492.01 186.492L1497.78 199.655C1442.41 248.58 1372.14 297.21 1293.38 351.716C1274.29 364.933 1254.68 378.503 1234.67 392.505C1245.86 386.131 1256.92 379.853 1267.83 373.665C1363.11 319.602 1446.75 272.144 1505.38 222.84C1506.01 222.313 1506.71 221.931 1507.44 221.69L1513.26 234.978C1453.77 284.768 1370.06 332.268 1274.76 386.34C1260.99 394.157 1246.96 402.116 1232.74 410.238C1240.54 406.645 1248.28 403.086 1255.94 399.562C1365 349.427 1459.89 305.805 1519.9 258.354C1520.82 257.634 1521.85 257.199 1522.93 257.033L1528.78 270.387L1528.76 270.404C1467.56 318.794 1372 362.725 1262.17 413.216C1252.25 417.777 1242.2 422.396 1232.06 427.074C1237.05 425.244 1242.03 423.42 1246.97 421.61C1368.75 376.99 1474.12 338.387 1534.46 293.847C1535.67 292.956 1537.08 292.532 1538.49 292.538L1544.28 305.743C1543.98 306.068 1543.65 306.367 1543.28 306.636C1481.41 352.31 1375.22 391.213 1252.49 436.179C1245.98 438.565 1239.42 440.97 1232.81 443.393L1239.6 441.459C1373.47 403.317 1488.86 370.44 1549.03 329.329C1550.58 328.277 1552.38 327.926 1554.12 328.199L1559.71 340.941C1559.21 341.69 1558.57 342.351 1557.79 342.879C1495.88 385.176 1379.41 418.359 1244.3 456.857L1235.47 459.373C1380.19 428.5 1504.46 401.853 1563.69 364.806C1565.59 363.624 1567.82 363.433 1569.85 364.082L1575.04 375.916C1574.43 377.214 1573.48 378.339 1572.22 379.127C1510.49 417.74 1384.03 444.717 1236.96 476.091C1231.44 477.268 1225.88 478.454 1220.3 479.645C1199.05 696.236 1148.42 952.342 972.165 1255.35L959.329 1260.97Z"/>
</mask>
<path d="M959.329 1260.97C1138.79 956.23 1190.56 698.859 1212.19 481.379C1209.91 481.866 1207.61 482.358 1205.33 482.848C1170.52 702.96 1104.63 966.871 903.814 1285.31L889.561 1291.55C1094 971.16 1161.21 705.849 1196.47 484.746L1190.36 486.061C1140.12 709.382 1057.17 981.315 831.15 1317.16L815.245 1324.13C1045.26 986.082 1129.84 712.586 1180.65 488.154C1178.91 488.53 1177.17 488.906 1175.42 489.285C1107.65 715.233 1005.7 995.127 755.171 1350.46L752.087 1351.81L748.291 1343.15C995.27 992.537 1097.16 715.625 1164.67 491.618C1163.26 491.924 1161.87 492.227 1160.46 492.534C1078.98 704.378 966.946 967.899 732.491 1307.1L727.583 1295.9C956.638 963.576 1067.84 704.261 1148.52 495.147L1145.53 495.806C1050.71 692.837 929.127 938.95 712.007 1260.37L706.822 1248.54C918.315 934.756 1038.53 693.025 1132.11 498.773L1130.59 499.11C1114.85 525.698 1098.61 553.272 1081.74 581.932C982.977 749.66 862.484 954.296 691.46 1213.49L685.994 1201.02C854.877 944.749 974.307 741.922 1072.32 575.467C1086.61 551.194 1100.45 527.694 1113.92 504.912C1104.22 518.367 1094.4 532.095 1084.44 546.132C970.739 706.375 839.061 905.464 670.849 1166.47L665.086 1153.32C831.57 895.078 962.19 697.674 1075.1 538.554C1079.17 532.813 1083.22 527.122 1087.25 521.479C957.377 671.751 812.628 861.426 650.17 1119.29L644.102 1105.45C797.001 863.374 934.211 681.582 1058.1 536.046C920.42 669.976 772.86 839.444 629.397 1071.89L623.037 1057.38C757.813 840.271 896.019 678.268 1026.21 548.813C882.659 666.868 734.539 816.815 608.548 1024.33L601.895 1009.15C720.085 816.492 857.093 673.614 991.487 559.765C844.217 662.465 697.778 793.574 587.636 976.618L580.674 960.735C683.945 791.932 817.646 667.473 953.962 568.69C805.323 656.613 662.718 769.617 566.655 928.75L559.427 912.262C649.559 766.59 778.011 659.747 913.845 575.392C766.319 649.21 629.534 744.908 545.641 880.807L538.221 863.88C617.097 740.409 738.627 650.3 871.54 579.627C727.676 640.123 598.434 719.434 524.701 833.034L517.121 815.741C586.531 713.579 699.506 639.31 826.859 581.526C689.447 629.574 569.456 693.461 503.967 785.73L496.297 768.23C596.214 635.182 805.071 561.482 1015.02 509.089C1023.54 506.258 1032.06 503.467 1040.57 500.721C1048.8 497.299 1057.03 493.922 1065.24 490.596C1072.83 486.721 1080.4 482.891 1087.96 479.114C1095.1 474.677 1102.22 470.288 1109.32 465.958C1115.86 461.04 1122.38 456.172 1128.87 451.365C1134.97 445.818 1141.06 440.325 1147.11 434.901C1152.6 428.867 1158.06 422.892 1163.49 416.989C1168.43 410.378 1173.35 403.837 1178.23 397.366C1182.59 390.193 1186.93 383.095 1191.24 376.073C1195.03 368.282 1198.8 360.573 1202.56 352.946C1205.72 344.649 1208.87 336.44 1212 328.317C1214.59 319.328 1217.17 310.437 1219.75 301.641C1221.68 292.306 1223.6 283.071 1225.54 273.933C1226.87 263.968 1228.21 254.111 1229.58 244.36C1240.62 84.3965 1257.43 -48.7738 1340.14 -160L1343.94 -151.327C1283.15 -67.8628 1259.32 28.5684 1246.63 139.777C1266.21 39.4661 1295.64 -48.2501 1355.24 -125.551L1359.25 -116.387C1296.97 -34.0193 1268.73 60.7822 1249.59 170.434C1275.49 71.5194 1309.28 -14.7233 1370.35 -91.0658L1374.58 -81.4189C1310.83 -0.307197 1277.61 92.5541 1251.37 200.297C1284.29 103.124 1322.98 18.659 1385.48 -56.5576L1389.93 -46.4056C1324.76 33.2514 1285.99 123.825 1251.96 229.262C1292.63 134.236 1336.82 51.9125 1400.64 -21.975L1405.28 -11.3875C1338.79 66.5905 1293.83 154.473 1251.32 257.141C1300.48 164.703 1350.8 84.9211 1415.8 12.6173L1420.65 23.6906C1353.01 99.6928 1301.27 184.342 1249.66 283.572C1307.98 194.347 1365.05 117.64 1430.98 47.2575L1436.04 58.8053C1367.46 132.524 1308.35 213.404 1247.1 308.54C1315.18 223.212 1379.58 150.127 1446.2 81.968L1451.44 93.9308C1382.23 164.966 1315.3 241.503 1243.99 331.841C1304.05 269.91 1360.55 214.941 1413.84 163.09C1429.99 147.379 1445.85 131.953 1461.42 116.705L1466.86 129.122C1452.25 143.419 1437.39 157.877 1422.27 172.585C1365.57 227.747 1305.24 286.446 1240.84 353.332C1267.8 330.443 1294 308.592 1319.27 287.506C1377.03 239.32 1430.01 195.122 1476.4 151.741C1476.49 151.658 1476.58 151.58 1476.67 151.504L1482.31 164.366C1436.25 207.234 1384.13 250.721 1327.39 298.052C1298.57 322.1 1268.54 347.149 1237.54 373.597C1253.93 362.164 1270.04 351.015 1285.81 340.105C1364.99 285.307 1435.54 236.481 1490.88 187.282C1491.24 186.97 1491.61 186.707 1492.01 186.492L1497.78 199.655C1442.41 248.58 1372.14 297.21 1293.38 351.716C1274.29 364.933 1254.68 378.503 1234.67 392.505C1245.86 386.131 1256.92 379.853 1267.83 373.665C1363.11 319.602 1446.75 272.144 1505.38 222.84C1506.01 222.313 1506.71 221.931 1507.44 221.69L1513.26 234.978C1453.77 284.768 1370.06 332.268 1274.76 386.34C1260.99 394.157 1246.96 402.116 1232.74 410.238C1240.54 406.645 1248.28 403.086 1255.94 399.562C1365 349.427 1459.89 305.805 1519.9 258.354C1520.82 257.634 1521.85 257.199 1522.93 257.033L1528.78 270.387L1528.76 270.404C1467.56 318.794 1372 362.725 1262.17 413.216C1252.25 417.777 1242.2 422.396 1232.06 427.074C1237.05 425.244 1242.03 423.42 1246.97 421.61C1368.75 376.99 1474.12 338.387 1534.46 293.847C1535.67 292.956 1537.08 292.532 1538.49 292.538L1544.28 305.743C1543.98 306.068 1543.65 306.367 1543.28 306.636C1481.41 352.31 1375.22 391.213 1252.49 436.179C1245.98 438.565 1239.42 440.97 1232.81 443.393L1239.6 441.459C1373.47 403.317 1488.86 370.44 1549.03 329.329C1550.58 328.277 1552.38 327.926 1554.12 328.199L1559.71 340.941C1559.21 341.69 1558.57 342.351 1557.79 342.879C1495.88 385.176 1379.41 418.359 1244.3 456.857L1235.47 459.373C1380.19 428.5 1504.46 401.853 1563.69 364.806C1565.59 363.624 1567.82 363.433 1569.85 364.082L1575.04 375.916C1574.43 377.214 1573.48 378.339 1572.22 379.127C1510.49 417.74 1384.03 444.717 1236.96 476.091C1231.44 477.268 1225.88 478.454 1220.3 479.645C1199.05 696.236 1148.42 952.342 972.165 1255.35L959.329 1260.97Z" fill="#01F68D" fill-opacity="0.18" stroke="#192140" stroke-width="2" mask="url(#path-6-inside-2_84_3)"/>
</g>
<defs>
<clipPath id="clip0_84_3">
<rect width="1145" height="763" fill="white"/>
</clipPath>
</defs>
</svg>
